<?xml version="1.0" encoding="UTF-8"?>
<svg xmlns="http://www.w3.org/2000/svg" xmlns:xlink="http://www.w3.org/1999/xlink" version="1.1" width="203.2mm" height="152.4mm" viewBox="0 0 203.2 152.4" style="stroke:black;fill:black" stroke-width="0.5">
<g stroke="none" stroke-width="0.3" font-family="Helvetic,Arial,sans" fill="#000000" font-size="3.88">
  <g class="plotroot xscalable">
    <g stroke="none" font-family="'PT Sans','Helvetica Neue','Helvetica',sans-serif" fill="#4C404B" font-size="3.18" class="guide ylabels">
      <text x="26.88" y="56.45" text-anchor="end" style="dominant-baseline:central">3.0×10<tspan style="dominant-baseline:inherit" dy="-1ex">4</tspan></text>
      <text x="26.88" y="104.32" text-anchor="end" style="dominant-baseline:central">1.0×10<tspan style="dominant-baseline:inherit" dy="-1ex">4</tspan></text>
      <text x="26.88" y="32.52" text-anchor="end" style="dominant-baseline:central">4.0×10<tspan style="dominant-baseline:inherit" dy="-1ex">4</tspan></text>
      <text x="26.88" y="80.39" text-anchor="end" style="dominant-baseline:central">2.0×10<tspan style="dominant-baseline:inherit" dy="-1ex">4</tspan></text>
      <text x="26.88" y="128.25" text-anchor="end" style="dominant-baseline:central">0</text>
      <text x="26.88" y="8.59" text-anchor="end" style="dominant-baseline:central">5.0×10<tspan style="dominant-baseline:inherit" dy="-1ex">4</tspan></text>
    </g>
    <g stroke="none" font-family="'PT Sans','Helvetica Neue','Helvetica',sans-serif" fill="#4C404B" font-size="3.18" class="guide xlabels">
      <text x="139.27" y="137.14" text-anchor="middle">2</text>
      <text x="32.16" y="137.14" text-anchor="middle">-4</text>
      <text x="67.86" y="137.14" text-anchor="middle">-2</text>
      <text x="174.97" y="137.14" text-anchor="middle">4</text>
      <text x="103.57" y="137.14" text-anchor="middle">0</text>
    </g>
    <g stroke="none" font-family="'PT Sans','Helvetica Neue','Helvetica',sans-serif" fill="#362A35" font-size="3.88">
      <text x="103.57" y="145.4" text-anchor="middle">PRI_met_phi</text>
    </g>
    <g stroke="none" font-family="'PT Sans','Helvetica Neue','Helvetica',sans-serif" fill="#362A35" font-size="3.88">
      <text x="190.73" y="66.75" text-anchor="middle">Label</text>
    </g>
    <g font-family="'PT Sans','Helvetica Neue','Helvetica',sans-serif" font-size="3.18">
      <g class="guide color_b">
        <g stroke="#0096DD" stroke-width="0.3" fill="#00BFFF">
          <path d="M181.25,68.75 L 185.55 68.75 185.55 73.05 181.25 73.05 z" />
        </g>
        <g stroke="none" fill="#4C404B">
          <text x="186.55" y="70.9" style="dominant-baseline:central">b</text>
        </g>
      </g>
      <g class="guide color_s">
        <g stroke="#A8A200" stroke-width="0.3" fill="#D4CA3A">
          <path d="M181.25,74.05 L 185.55 74.05 185.55 78.35 181.25 78.35 z" />
        </g>
        <g stroke="none" fill="#4C404B">
          <text x="186.55" y="76.2" style="dominant-baseline:central">s</text>
        </g>
      </g>
    </g>
    <g>
      <g clip-path="url(#clippath1)">
        <g opacity="1" stroke="#F1F1F5" fill="#FAFAFA" class="guide background">
          <path d="M27.88,5 L 179.25 5 179.25 131.84 27.88 131.84 z" />
        </g>
        <g stroke="#F0F0F3" stroke-width="0.2" class="guide ygridlines xfixed">
          <path d="M27.88,56.45 L 179.25 56.45" />
          <path d="M27.88,247.91 L 179.25 247.91" />
          <path d="M27.88,-87.14 L 179.25 -87.14" />
          <path d="M27.88,-39.27 L 179.25 -39.27" />
          <path d="M27.88,32.52 L 179.25 32.52" />
          <path d="M27.88,80.39 L 179.25 80.39" />
          <path d="M27.88,200.05 L 179.25 200.05" />
          <path d="M27.88,128.25 L 179.25 128.25" />
          <path d="M27.88,8.59 L 179.25 8.59" />
          <path d="M27.88,271.84 L 179.25 271.84" />
          <path d="M27.88,-63.21 L 179.25 -63.21" />
          <path d="M27.88,223.98 L 179.25 223.98" />
          <path d="M27.88,-135 L 179.25 -135" />
          <path d="M27.88,152.18 L 179.25 152.18" />
          <path d="M27.88,176.11 L 179.25 176.11" />
          <path d="M27.88,-15.34 L 179.25 -15.34" />
          <path d="M27.88,104.32 L 179.25 104.32" />
          <path d="M27.88,-111.07 L 179.25 -111.07" />
        </g>
        <g stroke="#F0F0F3" stroke-width="0.2" class="guide xgridlines yfixed">
          <path d="M32.16,5 L 32.16 131.84" />
          <path d="M67.86,5 L 67.86 131.84" />
          <path d="M-74.94,5 L -74.94 131.84" />
          <path d="M174.97,5 L 174.97 131.84" />
          <path d="M-146.34,5 L -146.34 131.84" />
          <path d="M103.57,5 L 103.57 131.84" />
          <path d="M317.77,5 L 317.77 131.84" />
          <path d="M-110.64,5 L -110.64 131.84" />
          <path d="M-39.24,5 L -39.24 131.84" />
          <path d="M210.67,5 L 210.67 131.84" />
          <path d="M246.37,5 L 246.37 131.84" />
          <path d="M353.47,5 L 353.47 131.84" />
          <path d="M-3.54,5 L -3.54 131.84" />
          <path d="M282.07,5 L 282.07 131.84" />
          <path d="M139.27,5 L 139.27 131.84" />
        </g>
      </g>
      <g clip-path="url(#clippath2)">
        <g class="plotpanel">
          <g stroke="none" fill="#00BFFF" shape-rendering="crispEdges">
            <g fill="#00BFFF" id="id6731" class="geometry">
              <path d="M140.96,93.98 L 159.65 93.98 159.65 29.17 140.96 29.17 z" />
            </g>
            <g fill="#00BFFF" id="id6729" class="geometry">
              <path d="M103.57,93.89 L 122.26 93.89 122.26 28.96 103.57 28.96 z" />
            </g>
            <g fill="#00BFFF" id="id6727" class="geometry">
              <path d="M66.17,94.9 L 84.87 94.9 84.87 28.19 66.17 28.19 z" />
            </g>
            <g fill="#D4CA3A" id="id6725" class="geometry">
              <path d="M140.96,128.25 L 159.65 128.25 159.65 93.98 140.96 93.98 z" />
            </g>
            <g fill="#D4CA3A" id="id6723" class="geometry">
              <path d="M103.57,128.25 L 122.26 128.25 122.26 93.89 103.57 93.89 z" />
            </g>
            <g fill="#D4CA3A" id="id6721" class="geometry">
              <path d="M66.17,128.25 L 84.87 128.25 84.87 94.9 66.17 94.9 z" />
            </g>
            <g fill="#D4CA3A" id="id6720" class="geometry">
              <path d="M47.48,128.25 L 66.17 128.25 66.17 94.24 47.48 94.24 z" />
            </g>
            <g fill="#D4CA3A" id="id6722" class="geometry">
              <path d="M84.87,128.25 L 103.57 128.25 103.57 93.64 84.87 93.64 z" />
            </g>
            <g fill="#D4CA3A" id="id6724" class="geometry">
              <path d="M122.26,128.25 L 140.96 128.25 140.96 93.83 122.26 93.83 z" />
            </g>
            <g fill="#00BFFF" id="id6726" class="geometry">
              <path d="M47.48,94.24 L 66.17 94.24 66.17 28.56 47.48 28.56 z" />
            </g>
            <g fill="#00BFFF" id="id6728" class="geometry">
              <path d="M84.87,93.64 L 103.57 93.64 103.57 26.46 84.87 26.46 z" />
            </g>
            <g fill="#00BFFF" id="id6730" class="geometry">
              <path d="M122.26,93.83 L 140.96 93.83 140.96 29.86 122.26 29.86 z" />
            </g>
          </g>
        </g>
      </g>
      <g clip-path="url(#clippath3)">
      </g>
    </g>
  </g>
</g>
<defs>
<clipPath id="clippath1">
  <path d="M27.88,5 L 179.25 5 179.25 131.84 27.88 131.84" />
</clipPath
><clipPath id="clippath2">
  <path d="M27.88,5 L 179.25 5 179.25 131.84 27.88 131.84" />
</clipPath
><clipPath id="clippath3">
  <path d="M27.88,5 L 179.25 5 179.25 131.84 27.88 131.84" />
</clipPath
></defs>
</svg>
