<?xml version="1.0" encoding="UTF-8"?>
<svg xmlns="http://www.w3.org/2000/svg" xmlns:xlink="http://www.w3.org/1999/xlink" version="1.1" width="203.2mm" height="152.4mm" viewBox="0 0 203.2 152.4" style="stroke:black;fill:black" stroke-width="0.5">
<g stroke="none" stroke-width="0.3" font-family="Helvetic,Arial,sans" fill="#000000" font-size="3.88">
  <g class="plotroot xscalable">
    <g stroke="none" font-family="'PT Sans','Helvetica Neue','Helvetica',sans-serif" fill="#4C404B" font-size="3.18" class="guide ylabels">
      <text x="26.88" y="8.59" text-anchor="end" style="dominant-baseline:central">1.0×10<tspan style="dominant-baseline:inherit" dy="-1ex">5</tspan></text>
      <text x="26.88" y="68.42" text-anchor="end" style="dominant-baseline:central">5.0×10<tspan style="dominant-baseline:inherit" dy="-1ex">4</tspan></text>
      <text x="26.88" y="128.25" text-anchor="end" style="dominant-baseline:central">0</text>
    </g>
    <g stroke="none" font-family="'PT Sans','Helvetica Neue','Helvetica',sans-serif" fill="#4C404B" font-size="3.18" class="guide xlabels">
      <text x="174.97" y="137.14" text-anchor="middle">1500</text>
      <text x="117.85" y="137.14" text-anchor="middle">500</text>
      <text x="32.16" y="137.14" text-anchor="middle">-1000</text>
      <text x="60.72" y="137.14" text-anchor="middle">-500</text>
      <text x="146.41" y="137.14" text-anchor="middle">1000</text>
      <text x="89.28" y="137.14" text-anchor="middle">0</text>
    </g>
    <g stroke="none" font-family="'PT Sans','Helvetica Neue','Helvetica',sans-serif" fill="#362A35" font-size="3.88">
      <text x="103.57" y="145.4" text-anchor="middle">PRI_jet_leading_pt</text>
    </g>
    <g stroke="none" font-family="'PT Sans','Helvetica Neue','Helvetica',sans-serif" fill="#362A35" font-size="3.88">
      <text x="190.73" y="66.75" text-anchor="middle">Label</text>
    </g>
    <g font-family="'PT Sans','Helvetica Neue','Helvetica',sans-serif" font-size="3.18">
      <g class="guide color_b">
        <g stroke="#0096DD" stroke-width="0.3" fill="#00BFFF">
          <path d="M181.25,68.75 L 185.55 68.75 185.55 73.05 181.25 73.05 z" />
        </g>
        <g stroke="none" fill="#4C404B">
          <text x="186.55" y="70.9" style="dominant-baseline:central">b</text>
        </g>
      </g>
      <g class="guide color_s">
        <g stroke="#A8A200" stroke-width="0.3" fill="#D4CA3A">
          <path d="M181.25,74.05 L 185.55 74.05 185.55 78.35 181.25 78.35 z" />
        </g>
        <g stroke="none" fill="#4C404B">
          <text x="186.55" y="76.2" style="dominant-baseline:central">s</text>
        </g>
      </g>
    </g>
    <g>
      <g clip-path="url(#clippath1)">
        <g opacity="1" stroke="#F1F1F5" fill="#FAFAFA" class="guide background">
          <path d="M27.88,5 L 179.25 5 179.25 131.84 27.88 131.84 z" />
        </g>
        <g stroke="#F0F0F3" stroke-width="0.2" class="guide ygridlines xfixed">
          <path d="M27.88,-111.07 L 179.25 -111.07" />
          <path d="M27.88,8.59 L 179.25 8.59" />
          <path d="M27.88,68.42 L 179.25 68.42" />
          <path d="M27.88,188.08 L 179.25 188.08" />
          <path d="M27.88,128.25 L 179.25 128.25" />
          <path d="M27.88,247.91 L 179.25 247.91" />
          <path d="M27.88,307.74 L 179.25 307.74" />
          <path d="M27.88,-51.24 L 179.25 -51.24" />
          <path d="M27.88,-170.9 L 179.25 -170.9" />
        </g>
        <g stroke="#F0F0F3" stroke-width="0.2" class="guide xgridlines yfixed">
          <path d="M-139.2,5 L -139.2 131.84" />
          <path d="M-24.96,5 L -24.96 131.84" />
          <path d="M32.16,5 L 32.16 131.84" />
          <path d="M-82.08,5 L -82.08 131.84" />
          <path d="M260.65,5 L 260.65 131.84" />
          <path d="M146.41,5 L 146.41 131.84" />
          <path d="M-53.52,5 L -53.52 131.84" />
          <path d="M346.33,5 L 346.33 131.84" />
          <path d="M203.53,5 L 203.53 131.84" />
          <path d="M232.09,5 L 232.09 131.84" />
          <path d="M289.21,5 L 289.21 131.84" />
          <path d="M89.28,5 L 89.28 131.84" />
          <path d="M-110.64,5 L -110.64 131.84" />
          <path d="M317.77,5 L 317.77 131.84" />
          <path d="M60.72,5 L 60.72 131.84" />
          <path d="M3.6,5 L 3.6 131.84" />
          <path d="M117.85,5 L 117.85 131.84" />
          <path d="M174.97,5 L 174.97 131.84" />
        </g>
      </g>
      <g clip-path="url(#clippath2)">
        <g class="plotpanel">
          <g stroke="none" fill="#00BFFF" shape-rendering="crispEdges">
            <g fill="#00BFFF" id="id7605" class="geometry">
              <path d="M152.42,128.25 L 153.29 128.25 153.29 128.25 152.42 128.25 z" />
            </g>
            <g fill="#00BFFF" id="id7603" class="geometry">
              <path d="M150.66,128.25 L 151.54 128.25 151.54 128.25 150.66 128.25 z" />
            </g>
            <g fill="#00BFFF" id="id7601" class="geometry">
              <path d="M148.91,128.25 L 149.78 128.25 149.78 128.25 148.91 128.25 z" />
            </g>
            <g fill="#00BFFF" id="id7599" class="geometry">
              <path d="M147.15,128.25 L 148.03 128.25 148.03 128.25 147.15 128.25 z" />
            </g>
            <g fill="#00BFFF" id="id7597" class="geometry">
              <path d="M145.4,128.25 L 146.27 128.25 146.27 128.25 145.4 128.25 z" />
            </g>
            <g fill="#00BFFF" id="id7595" class="geometry">
              <path d="M143.64,128.25 L 144.52 128.25 144.52 128.25 143.64 128.25 z" />
            </g>
            <g fill="#00BFFF" id="id7593" class="geometry">
              <path d="M141.89,128.25 L 142.76 128.25 142.76 128.25 141.89 128.25 z" />
            </g>
            <g fill="#00BFFF" id="id7591" class="geometry">
              <path d="M140.13,128.25 L 141.01 128.25 141.01 128.25 140.13 128.25 z" />
            </g>
            <g fill="#00BFFF" id="id7589" class="geometry">
              <path d="M138.38,128.25 L 139.26 128.25 139.26 128.25 138.38 128.25 z" />
            </g>
            <g fill="#00BFFF" id="id7587" class="geometry">
              <path d="M136.62,128.25 L 137.5 128.25 137.5 128.25 136.62 128.25 z" />
            </g>
            <g fill="#00BFFF" id="id7585" class="geometry">
              <path d="M134.87,128.25 L 135.75 128.25 135.75 128.25 134.87 128.25 z" />
            </g>
            <g fill="#00BFFF" id="id7583" class="geometry">
              <path d="M133.11,128.25 L 133.99 128.25 133.99 128.25 133.11 128.25 z" />
            </g>
            <g fill="#00BFFF" id="id7581" class="geometry">
              <path d="M131.36,128.25 L 132.24 128.25 132.24 128.25 131.36 128.25 z" />
            </g>
            <g fill="#00BFFF" id="id7579" class="geometry">
              <path d="M129.6,128.25 L 130.48 128.25 130.48 128.25 129.6 128.25 z" />
            </g>
            <g fill="#00BFFF" id="id7577" class="geometry">
              <path d="M127.85,128.25 L 128.73 128.25 128.73 128.25 127.85 128.25 z" />
            </g>
            <g fill="#00BFFF" id="id7575" class="geometry">
              <path d="M126.1,128.25 L 126.97 128.25 126.97 128.24 126.1 128.24 z" />
            </g>
            <g fill="#00BFFF" id="id7573" class="geometry">
              <path d="M124.34,128.25 L 125.22 128.25 125.22 128.24 124.34 128.24 z" />
            </g>
            <g fill="#00BFFF" id="id7571" class="geometry">
              <path d="M122.59,128.24 L 123.46 128.24 123.46 128.24 122.59 128.24 z" />
            </g>
            <g fill="#00BFFF" id="id7569" class="geometry">
              <path d="M120.83,128.25 L 121.71 128.25 121.71 128.24 120.83 128.24 z" />
            </g>
            <g fill="#00BFFF" id="id7567" class="geometry">
              <path d="M119.08,128.23 L 119.95 128.23 119.95 128.23 119.08 128.23 z" />
            </g>
            <g fill="#00BFFF" id="id7565" class="geometry">
              <path d="M117.32,128.23 L 118.2 128.23 118.2 128.22 117.32 128.22 z" />
            </g>
            <g fill="#00BFFF" id="id7563" class="geometry">
              <path d="M115.57,128.22 L 116.44 128.22 116.44 128.19 115.57 128.19 z" />
            </g>
            <g fill="#00BFFF" id="id7561" class="geometry">
              <path d="M113.81,128.21 L 114.69 128.21 114.69 128.17 113.81 128.17 z" />
            </g>
            <g fill="#00BFFF" id="id7559" class="geometry">
              <path d="M112.06,128.19 L 112.94 128.19 112.94 128.13 112.06 128.13 z" />
            </g>
            <g fill="#00BFFF" id="id7557" class="geometry">
              <path d="M110.3,128.17 L 111.18 128.17 111.18 128.09 110.3 128.09 z" />
            </g>
            <g fill="#00BFFF" id="id7555" class="geometry">
              <path d="M108.55,128.13 L 109.43 128.13 109.43 127.98 108.55 127.98 z" />
            </g>
            <g fill="#00BFFF" id="id7553" class="geometry">
              <path d="M106.79,128.08 L 107.67 128.08 107.67 127.87 106.79 127.87 z" />
            </g>
            <g fill="#00BFFF" id="id7551" class="geometry">
              <path d="M105.04,127.97 L 105.92 127.97 105.92 127.7 105.04 127.7 z" />
            </g>
            <g fill="#00BFFF" id="id7549" class="geometry">
              <path d="M103.28,127.81 L 104.16 127.81 104.16 127.28 103.28 127.28 z" />
            </g>
            <g fill="#00BFFF" id="id7547" class="geometry">
              <path d="M101.53,127.51 L 102.41 127.51 102.41 126.72 101.53 126.72 z" />
            </g>
            <g fill="#00BFFF" id="id7545" class="geometry">
              <path d="M99.78,127.02 L 100.65 127.02 100.65 125.75 99.78 125.75 z" />
            </g>
            <g fill="#00BFFF" id="id7543" class="geometry">
              <path d="M98.02,126.17 L 98.9 126.17 98.9 124.06 98.02 124.06 z" />
            </g>
            <g fill="#00BFFF" id="id7541" class="geometry">
              <path d="M96.27,124.68 L 97.14 124.68 97.14 120.92 96.27 120.92 z" />
            </g>
            <g fill="#00BFFF" id="id7539" class="geometry">
              <path d="M94.51,122.06 L 95.39 122.06 95.39 115 94.51 115 z" />
            </g>
            <g fill="#00BFFF" id="id7537" class="geometry">
              <path d="M92.76,117.87 L 93.63 117.87 93.63 103.59 92.76 103.59 z" />
            </g>
            <g fill="#00BFFF" id="id7535" class="geometry">
              <path d="M91,114.36 L 91.88 114.36 91.88 81.12 91 81.12 z" />
            </g>
            <g fill="#00BFFF" id="id7533" class="geometry">
              <path d="M89.25,128.25 L 90.12 128.25 90.12 128.25 89.25 128.25 z" />
            </g>
            <g fill="#00BFFF" id="id7531" class="geometry">
              <path d="M87.49,128.25 L 88.37 128.25 88.37 128.25 87.49 128.25 z" />
            </g>
            <g fill="#00BFFF" id="id7529" class="geometry">
              <path d="M85.74,128.25 L 86.62 128.25 86.62 128.25 85.74 128.25 z" />
            </g>
            <g fill="#00BFFF" id="id7527" class="geometry">
              <path d="M83.98,128.25 L 84.86 128.25 84.86 128.25 83.98 128.25 z" />
            </g>
            <g fill="#00BFFF" id="id7525" class="geometry">
              <path d="M82.23,128.25 L 83.11 128.25 83.11 128.25 82.23 128.25 z" />
            </g>
            <g fill="#00BFFF" id="id7523" class="geometry">
              <path d="M80.47,128.25 L 81.35 128.25 81.35 128.25 80.47 128.25 z" />
            </g>
            <g fill="#00BFFF" id="id7521" class="geometry">
              <path d="M78.72,128.25 L 79.6 128.25 79.6 128.25 78.72 128.25 z" />
            </g>
            <g fill="#00BFFF" id="id7519" class="geometry">
              <path d="M76.97,128.25 L 77.84 128.25 77.84 128.25 76.97 128.25 z" />
            </g>
            <g fill="#00BFFF" id="id7517" class="geometry">
              <path d="M75.21,128.25 L 76.09 128.25 76.09 128.25 75.21 128.25 z" />
            </g>
            <g fill="#00BFFF" id="id7515" class="geometry">
              <path d="M73.46,128.25 L 74.33 128.25 74.33 128.25 73.46 128.25 z" />
            </g>
            <g fill="#00BFFF" id="id7513" class="geometry">
              <path d="M71.7,128.25 L 72.58 128.25 72.58 128.25 71.7 128.25 z" />
            </g>
            <g fill="#00BFFF" id="id7511" class="geometry">
              <path d="M69.95,128.25 L 70.82 128.25 70.82 128.25 69.95 128.25 z" />
            </g>
            <g fill="#00BFFF" id="id7509" class="geometry">
              <path d="M68.19,128.25 L 69.07 128.25 69.07 128.25 68.19 128.25 z" />
            </g>
            <g fill="#00BFFF" id="id7507" class="geometry">
              <path d="M66.44,128.25 L 67.31 128.25 67.31 128.25 66.44 128.25 z" />
            </g>
            <g fill="#00BFFF" id="id7505" class="geometry">
              <path d="M64.68,128.25 L 65.56 128.25 65.56 128.25 64.68 128.25 z" />
            </g>
            <g fill="#00BFFF" id="id7503" class="geometry">
              <path d="M62.93,128.25 L 63.81 128.25 63.81 128.25 62.93 128.25 z" />
            </g>
            <g fill="#00BFFF" id="id7501" class="geometry">
              <path d="M61.17,128.25 L 62.05 128.25 62.05 128.25 61.17 128.25 z" />
            </g>
            <g fill="#00BFFF" id="id7499" class="geometry">
              <path d="M59.42,128.25 L 60.3 128.25 60.3 128.25 59.42 128.25 z" />
            </g>
            <g fill="#00BFFF" id="id7497" class="geometry">
              <path d="M57.66,128.25 L 58.54 128.25 58.54 128.25 57.66 128.25 z" />
            </g>
            <g fill="#00BFFF" id="id7495" class="geometry">
              <path d="M55.91,128.25 L 56.79 128.25 56.79 128.25 55.91 128.25 z" />
            </g>
            <g fill="#00BFFF" id="id7493" class="geometry">
              <path d="M54.15,128.25 L 55.03 128.25 55.03 128.25 54.15 128.25 z" />
            </g>
            <g fill="#00BFFF" id="id7491" class="geometry">
              <path d="M52.4,128.25 L 53.28 128.25 53.28 128.25 52.4 128.25 z" />
            </g>
            <g fill="#00BFFF" id="id7489" class="geometry">
              <path d="M50.65,128.25 L 51.52 128.25 51.52 128.25 50.65 128.25 z" />
            </g>
            <g fill="#00BFFF" id="id7487" class="geometry">
              <path d="M48.89,128.25 L 49.77 128.25 49.77 128.25 48.89 128.25 z" />
            </g>
            <g fill="#00BFFF" id="id7485" class="geometry">
              <path d="M47.14,128.25 L 48.01 128.25 48.01 128.25 47.14 128.25 z" />
            </g>
            <g fill="#00BFFF" id="id7483" class="geometry">
              <path d="M45.38,128.25 L 46.26 128.25 46.26 128.25 45.38 128.25 z" />
            </g>
            <g fill="#00BFFF" id="id7481" class="geometry">
              <path d="M43.63,128.25 L 44.5 128.25 44.5 128.25 43.63 128.25 z" />
            </g>
            <g fill="#00BFFF" id="id7479" class="geometry">
              <path d="M41.87,128.25 L 42.75 128.25 42.75 128.25 41.87 128.25 z" />
            </g>
            <g fill="#00BFFF" id="id7477" class="geometry">
              <path d="M40.12,128.25 L 40.99 128.25 40.99 128.25 40.12 128.25 z" />
            </g>
            <g fill="#00BFFF" id="id7475" class="geometry">
              <path d="M38.36,128.25 L 39.24 128.25 39.24 128.25 38.36 128.25 z" />
            </g>
            <g fill="#00BFFF" id="id7473" class="geometry">
              <path d="M36.61,128.25 L 37.49 128.25 37.49 128.25 36.61 128.25 z" />
            </g>
            <g fill="#00BFFF" id="id7471" class="geometry">
              <path d="M34.85,128.25 L 35.73 128.25 35.73 128.25 34.85 128.25 z" />
            </g>
            <g fill="#00BFFF" id="id7469" class="geometry">
              <path d="M33.1,128.25 L 33.98 128.25 33.98 128.25 33.1 128.25 z" />
            </g>
            <g fill="#D4CA3A" id="id7467" class="geometry">
              <path d="M152.42,128.25 L 153.29 128.25 153.29 128.25 152.42 128.25 z" />
            </g>
            <g fill="#D4CA3A" id="id7465" class="geometry">
              <path d="M150.66,128.25 L 151.54 128.25 151.54 128.25 150.66 128.25 z" />
            </g>
            <g fill="#D4CA3A" id="id7463" class="geometry">
              <path d="M148.91,128.25 L 149.78 128.25 149.78 128.25 148.91 128.25 z" />
            </g>
            <g fill="#D4CA3A" id="id7461" class="geometry">
              <path d="M147.15,128.25 L 148.03 128.25 148.03 128.25 147.15 128.25 z" />
            </g>
            <g fill="#D4CA3A" id="id7459" class="geometry">
              <path d="M145.4,128.25 L 146.27 128.25 146.27 128.25 145.4 128.25 z" />
            </g>
            <g fill="#D4CA3A" id="id7457" class="geometry">
              <path d="M143.64,128.25 L 144.52 128.25 144.52 128.25 143.64 128.25 z" />
            </g>
            <g fill="#D4CA3A" id="id7455" class="geometry">
              <path d="M141.89,128.25 L 142.76 128.25 142.76 128.25 141.89 128.25 z" />
            </g>
            <g fill="#D4CA3A" id="id7453" class="geometry">
              <path d="M140.13,128.25 L 141.01 128.25 141.01 128.25 140.13 128.25 z" />
            </g>
            <g fill="#D4CA3A" id="id7451" class="geometry">
              <path d="M138.38,128.25 L 139.26 128.25 139.26 128.25 138.38 128.25 z" />
            </g>
            <g fill="#D4CA3A" id="id7449" class="geometry">
              <path d="M136.62,128.25 L 137.5 128.25 137.5 128.25 136.62 128.25 z" />
            </g>
            <g fill="#D4CA3A" id="id7447" class="geometry">
              <path d="M134.87,128.25 L 135.75 128.25 135.75 128.25 134.87 128.25 z" />
            </g>
            <g fill="#D4CA3A" id="id7445" class="geometry">
              <path d="M133.11,128.25 L 133.99 128.25 133.99 128.25 133.11 128.25 z" />
            </g>
            <g fill="#D4CA3A" id="id7443" class="geometry">
              <path d="M131.36,128.25 L 132.24 128.25 132.24 128.25 131.36 128.25 z" />
            </g>
            <g fill="#D4CA3A" id="id7441" class="geometry">
              <path d="M129.6,128.25 L 130.48 128.25 130.48 128.25 129.6 128.25 z" />
            </g>
            <g fill="#D4CA3A" id="id7439" class="geometry">
              <path d="M127.85,128.25 L 128.73 128.25 128.73 128.25 127.85 128.25 z" />
            </g>
            <g fill="#D4CA3A" id="id7437" class="geometry">
              <path d="M126.1,128.25 L 126.97 128.25 126.97 128.25 126.1 128.25 z" />
            </g>
            <g fill="#D4CA3A" id="id7435" class="geometry">
              <path d="M124.34,128.25 L 125.22 128.25 125.22 128.25 124.34 128.25 z" />
            </g>
            <g fill="#D4CA3A" id="id7433" class="geometry">
              <path d="M122.59,128.25 L 123.46 128.25 123.46 128.24 122.59 128.24 z" />
            </g>
            <g fill="#D4CA3A" id="id7431" class="geometry">
              <path d="M120.83,128.25 L 121.71 128.25 121.71 128.25 120.83 128.25 z" />
            </g>
            <g fill="#D4CA3A" id="id7429" class="geometry">
              <path d="M119.08,128.25 L 119.95 128.25 119.95 128.23 119.08 128.23 z" />
            </g>
            <g fill="#D4CA3A" id="id7427" class="geometry">
              <path d="M117.32,128.25 L 118.2 128.25 118.2 128.23 117.32 128.23 z" />
            </g>
            <g fill="#D4CA3A" id="id7425" class="geometry">
              <path d="M115.57,128.25 L 116.44 128.25 116.44 128.22 115.57 128.22 z" />
            </g>
            <g fill="#D4CA3A" id="id7423" class="geometry">
              <path d="M113.81,128.25 L 114.69 128.25 114.69 128.21 113.81 128.21 z" />
            </g>
            <g fill="#D4CA3A" id="id7421" class="geometry">
              <path d="M112.06,128.25 L 112.94 128.25 112.94 128.19 112.06 128.19 z" />
            </g>
            <g fill="#D4CA3A" id="id7419" class="geometry">
              <path d="M110.3,128.25 L 111.18 128.25 111.18 128.17 110.3 128.17 z" />
            </g>
            <g fill="#D4CA3A" id="id7417" class="geometry">
              <path d="M108.55,128.25 L 109.43 128.25 109.43 128.13 108.55 128.13 z" />
            </g>
            <g fill="#D4CA3A" id="id7415" class="geometry">
              <path d="M106.79,128.25 L 107.67 128.25 107.67 128.08 106.79 128.08 z" />
            </g>
            <g fill="#D4CA3A" id="id7413" class="geometry">
              <path d="M105.04,128.25 L 105.92 128.25 105.92 127.97 105.04 127.97 z" />
            </g>
            <g fill="#D4CA3A" id="id7411" class="geometry">
              <path d="M103.28,128.25 L 104.16 128.25 104.16 127.81 103.28 127.81 z" />
            </g>
            <g fill="#D4CA3A" id="id7409" class="geometry">
              <path d="M101.53,128.25 L 102.41 128.25 102.41 127.51 101.53 127.51 z" />
            </g>
            <g fill="#D4CA3A" id="id7407" class="geometry">
              <path d="M99.78,128.25 L 100.65 128.25 100.65 127.02 99.78 127.02 z" />
            </g>
            <g fill="#D4CA3A" id="id7405" class="geometry">
              <path d="M98.02,128.25 L 98.9 128.25 98.9 126.17 98.02 126.17 z" />
            </g>
            <g fill="#D4CA3A" id="id7403" class="geometry">
              <path d="M96.27,128.25 L 97.14 128.25 97.14 124.68 96.27 124.68 z" />
            </g>
            <g fill="#D4CA3A" id="id7401" class="geometry">
              <path d="M94.51,128.25 L 95.39 128.25 95.39 122.06 94.51 122.06 z" />
            </g>
            <g fill="#D4CA3A" id="id7399" class="geometry">
              <path d="M92.76,128.25 L 93.63 128.25 93.63 117.87 92.76 117.87 z" />
            </g>
            <g fill="#D4CA3A" id="id7397" class="geometry">
              <path d="M91,128.25 L 91.88 128.25 91.88 114.36 91 114.36 z" />
            </g>
            <g fill="#D4CA3A" id="id7395" class="geometry">
              <path d="M89.25,128.25 L 90.12 128.25 90.12 128.25 89.25 128.25 z" />
            </g>
            <g fill="#D4CA3A" id="id7393" class="geometry">
              <path d="M87.49,128.25 L 88.37 128.25 88.37 128.25 87.49 128.25 z" />
            </g>
            <g fill="#D4CA3A" id="id7391" class="geometry">
              <path d="M85.74,128.25 L 86.62 128.25 86.62 128.25 85.74 128.25 z" />
            </g>
            <g fill="#D4CA3A" id="id7389" class="geometry">
              <path d="M83.98,128.25 L 84.86 128.25 84.86 128.25 83.98 128.25 z" />
            </g>
            <g fill="#D4CA3A" id="id7387" class="geometry">
              <path d="M82.23,128.25 L 83.11 128.25 83.11 128.25 82.23 128.25 z" />
            </g>
            <g fill="#D4CA3A" id="id7385" class="geometry">
              <path d="M80.47,128.25 L 81.35 128.25 81.35 128.25 80.47 128.25 z" />
            </g>
            <g fill="#D4CA3A" id="id7383" class="geometry">
              <path d="M78.72,128.25 L 79.6 128.25 79.6 128.25 78.72 128.25 z" />
            </g>
            <g fill="#D4CA3A" id="id7381" class="geometry">
              <path d="M76.97,128.25 L 77.84 128.25 77.84 128.25 76.97 128.25 z" />
            </g>
            <g fill="#D4CA3A" id="id7379" class="geometry">
              <path d="M75.21,128.25 L 76.09 128.25 76.09 128.25 75.21 128.25 z" />
            </g>
            <g fill="#D4CA3A" id="id7377" class="geometry">
              <path d="M73.46,128.25 L 74.33 128.25 74.33 128.25 73.46 128.25 z" />
            </g>
            <g fill="#D4CA3A" id="id7375" class="geometry">
              <path d="M71.7,128.25 L 72.58 128.25 72.58 128.25 71.7 128.25 z" />
            </g>
            <g fill="#D4CA3A" id="id7373" class="geometry">
              <path d="M69.95,128.25 L 70.82 128.25 70.82 128.25 69.95 128.25 z" />
            </g>
            <g fill="#D4CA3A" id="id7371" class="geometry">
              <path d="M68.19,128.25 L 69.07 128.25 69.07 128.25 68.19 128.25 z" />
            </g>
            <g fill="#D4CA3A" id="id7369" class="geometry">
              <path d="M66.44,128.25 L 67.31 128.25 67.31 128.25 66.44 128.25 z" />
            </g>
            <g fill="#D4CA3A" id="id7367" class="geometry">
              <path d="M64.68,128.25 L 65.56 128.25 65.56 128.25 64.68 128.25 z" />
            </g>
            <g fill="#D4CA3A" id="id7365" class="geometry">
              <path d="M62.93,128.25 L 63.81 128.25 63.81 128.25 62.93 128.25 z" />
            </g>
            <g fill="#D4CA3A" id="id7363" class="geometry">
              <path d="M61.17,128.25 L 62.05 128.25 62.05 128.25 61.17 128.25 z" />
            </g>
            <g fill="#D4CA3A" id="id7361" class="geometry">
              <path d="M59.42,128.25 L 60.3 128.25 60.3 128.25 59.42 128.25 z" />
            </g>
            <g fill="#D4CA3A" id="id7359" class="geometry">
              <path d="M57.66,128.25 L 58.54 128.25 58.54 128.25 57.66 128.25 z" />
            </g>
            <g fill="#D4CA3A" id="id7357" class="geometry">
              <path d="M55.91,128.25 L 56.79 128.25 56.79 128.25 55.91 128.25 z" />
            </g>
            <g fill="#D4CA3A" id="id7355" class="geometry">
              <path d="M54.15,128.25 L 55.03 128.25 55.03 128.25 54.15 128.25 z" />
            </g>
            <g fill="#D4CA3A" id="id7353" class="geometry">
              <path d="M52.4,128.25 L 53.28 128.25 53.28 128.25 52.4 128.25 z" />
            </g>
            <g fill="#D4CA3A" id="id7351" class="geometry">
              <path d="M50.65,128.25 L 51.52 128.25 51.52 128.25 50.65 128.25 z" />
            </g>
            <g fill="#D4CA3A" id="id7349" class="geometry">
              <path d="M48.89,128.25 L 49.77 128.25 49.77 128.25 48.89 128.25 z" />
            </g>
            <g fill="#D4CA3A" id="id7347" class="geometry">
              <path d="M47.14,128.25 L 48.01 128.25 48.01 128.25 47.14 128.25 z" />
            </g>
            <g fill="#D4CA3A" id="id7345" class="geometry">
              <path d="M45.38,128.25 L 46.26 128.25 46.26 128.25 45.38 128.25 z" />
            </g>
            <g fill="#D4CA3A" id="id7343" class="geometry">
              <path d="M43.63,128.25 L 44.5 128.25 44.5 128.25 43.63 128.25 z" />
            </g>
            <g fill="#D4CA3A" id="id7341" class="geometry">
              <path d="M41.87,128.25 L 42.75 128.25 42.75 128.25 41.87 128.25 z" />
            </g>
            <g fill="#D4CA3A" id="id7339" class="geometry">
              <path d="M40.12,128.25 L 40.99 128.25 40.99 128.25 40.12 128.25 z" />
            </g>
            <g fill="#D4CA3A" id="id7337" class="geometry">
              <path d="M38.36,128.25 L 39.24 128.25 39.24 128.25 38.36 128.25 z" />
            </g>
            <g fill="#D4CA3A" id="id7335" class="geometry">
              <path d="M36.61,128.25 L 37.49 128.25 37.49 128.25 36.61 128.25 z" />
            </g>
            <g fill="#D4CA3A" id="id7333" class="geometry">
              <path d="M34.85,128.25 L 35.73 128.25 35.73 128.25 34.85 128.25 z" />
            </g>
            <g fill="#D4CA3A" id="id7331" class="geometry">
              <path d="M33.1,128.25 L 33.98 128.25 33.98 128.25 33.1 128.25 z" />
            </g>
            <g fill="#D4CA3A" id="id7330" class="geometry">
              <path d="M32.22,128.25 L 33.1 128.25 33.1 97.75 32.22 97.75 z" />
            </g>
            <g fill="#D4CA3A" id="id7332" class="geometry">
              <path d="M33.98,128.25 L 34.85 128.25 34.85 128.25 33.98 128.25 z" />
            </g>
            <g fill="#D4CA3A" id="id7334" class="geometry">
              <path d="M35.73,128.25 L 36.61 128.25 36.61 128.25 35.73 128.25 z" />
            </g>
            <g fill="#D4CA3A" id="id7336" class="geometry">
              <path d="M37.49,128.25 L 38.36 128.25 38.36 128.25 37.49 128.25 z" />
            </g>
            <g fill="#D4CA3A" id="id7338" class="geometry">
              <path d="M39.24,128.25 L 40.12 128.25 40.12 128.25 39.24 128.25 z" />
            </g>
            <g fill="#D4CA3A" id="id7340" class="geometry">
              <path d="M40.99,128.25 L 41.87 128.25 41.87 128.25 40.99 128.25 z" />
            </g>
            <g fill="#D4CA3A" id="id7342" class="geometry">
              <path d="M42.75,128.25 L 43.63 128.25 43.63 128.25 42.75 128.25 z" />
            </g>
            <g fill="#D4CA3A" id="id7344" class="geometry">
              <path d="M44.5,128.25 L 45.38 128.25 45.38 128.25 44.5 128.25 z" />
            </g>
            <g fill="#D4CA3A" id="id7346" class="geometry">
              <path d="M46.26,128.25 L 47.14 128.25 47.14 128.25 46.26 128.25 z" />
            </g>
            <g fill="#D4CA3A" id="id7348" class="geometry">
              <path d="M48.01,128.25 L 48.89 128.25 48.89 128.25 48.01 128.25 z" />
            </g>
            <g fill="#D4CA3A" id="id7350" class="geometry">
              <path d="M49.77,128.25 L 50.65 128.25 50.65 128.25 49.77 128.25 z" />
            </g>
            <g fill="#D4CA3A" id="id7352" class="geometry">
              <path d="M51.52,128.25 L 52.4 128.25 52.4 128.25 51.52 128.25 z" />
            </g>
            <g fill="#D4CA3A" id="id7354" class="geometry">
              <path d="M53.28,128.25 L 54.15 128.25 54.15 128.25 53.28 128.25 z" />
            </g>
            <g fill="#D4CA3A" id="id7356" class="geometry">
              <path d="M55.03,128.25 L 55.91 128.25 55.91 128.25 55.03 128.25 z" />
            </g>
            <g fill="#D4CA3A" id="id7358" class="geometry">
              <path d="M56.79,128.25 L 57.66 128.25 57.66 128.25 56.79 128.25 z" />
            </g>
            <g fill="#D4CA3A" id="id7360" class="geometry">
              <path d="M58.54,128.25 L 59.42 128.25 59.42 128.25 58.54 128.25 z" />
            </g>
            <g fill="#D4CA3A" id="id7362" class="geometry">
              <path d="M60.3,128.25 L 61.17 128.25 61.17 128.25 60.3 128.25 z" />
            </g>
            <g fill="#D4CA3A" id="id7364" class="geometry">
              <path d="M62.05,128.25 L 62.93 128.25 62.93 128.25 62.05 128.25 z" />
            </g>
            <g fill="#D4CA3A" id="id7366" class="geometry">
              <path d="M63.81,128.25 L 64.68 128.25 64.68 128.25 63.81 128.25 z" />
            </g>
            <g fill="#D4CA3A" id="id7368" class="geometry">
              <path d="M65.56,128.25 L 66.44 128.25 66.44 128.25 65.56 128.25 z" />
            </g>
            <g fill="#D4CA3A" id="id7370" class="geometry">
              <path d="M67.31,128.25 L 68.19 128.25 68.19 128.25 67.31 128.25 z" />
            </g>
            <g fill="#D4CA3A" id="id7372" class="geometry">
              <path d="M69.07,128.25 L 69.95 128.25 69.95 128.25 69.07 128.25 z" />
            </g>
            <g fill="#D4CA3A" id="id7374" class="geometry">
              <path d="M70.82,128.25 L 71.7 128.25 71.7 128.25 70.82 128.25 z" />
            </g>
            <g fill="#D4CA3A" id="id7376" class="geometry">
              <path d="M72.58,128.25 L 73.46 128.25 73.46 128.25 72.58 128.25 z" />
            </g>
            <g fill="#D4CA3A" id="id7378" class="geometry">
              <path d="M74.33,128.25 L 75.21 128.25 75.21 128.25 74.33 128.25 z" />
            </g>
            <g fill="#D4CA3A" id="id7380" class="geometry">
              <path d="M76.09,128.25 L 76.97 128.25 76.97 128.25 76.09 128.25 z" />
            </g>
            <g fill="#D4CA3A" id="id7382" class="geometry">
              <path d="M77.84,128.25 L 78.72 128.25 78.72 128.25 77.84 128.25 z" />
            </g>
            <g fill="#D4CA3A" id="id7384" class="geometry">
              <path d="M79.6,128.25 L 80.47 128.25 80.47 128.25 79.6 128.25 z" />
            </g>
            <g fill="#D4CA3A" id="id7386" class="geometry">
              <path d="M81.35,128.25 L 82.23 128.25 82.23 128.25 81.35 128.25 z" />
            </g>
            <g fill="#D4CA3A" id="id7388" class="geometry">
              <path d="M83.11,128.25 L 83.98 128.25 83.98 128.25 83.11 128.25 z" />
            </g>
            <g fill="#D4CA3A" id="id7390" class="geometry">
              <path d="M84.86,128.25 L 85.74 128.25 85.74 128.25 84.86 128.25 z" />
            </g>
            <g fill="#D4CA3A" id="id7392" class="geometry">
              <path d="M86.62,128.25 L 87.49 128.25 87.49 128.25 86.62 128.25 z" />
            </g>
            <g fill="#D4CA3A" id="id7394" class="geometry">
              <path d="M88.37,128.25 L 89.25 128.25 89.25 128.25 88.37 128.25 z" />
            </g>
            <g fill="#D4CA3A" id="id7396" class="geometry">
              <path d="M90.12,128.25 L 91 128.25 91 128.19 90.12 128.19 z" />
            </g>
            <g fill="#D4CA3A" id="id7398" class="geometry">
              <path d="M91.88,128.25 L 92.76 128.25 92.76 115.58 91.88 115.58 z" />
            </g>
            <g fill="#D4CA3A" id="id7400" class="geometry">
              <path d="M93.63,128.25 L 94.51 128.25 94.51 119.93 93.63 119.93 z" />
            </g>
            <g fill="#D4CA3A" id="id7402" class="geometry">
              <path d="M95.39,128.25 L 96.27 128.25 96.27 123.51 95.39 123.51 z" />
            </g>
            <g fill="#D4CA3A" id="id7404" class="geometry">
              <path d="M97.14,128.25 L 98.02 128.25 98.02 125.51 97.14 125.51 z" />
            </g>
            <g fill="#D4CA3A" id="id7406" class="geometry">
              <path d="M98.9,128.25 L 99.78 128.25 99.78 126.69 98.9 126.69 z" />
            </g>
            <g fill="#D4CA3A" id="id7408" class="geometry">
              <path d="M100.65,128.25 L 101.53 128.25 101.53 127.32 100.65 127.32 z" />
            </g>
            <g fill="#D4CA3A" id="id7410" class="geometry">
              <path d="M102.41,128.25 L 103.28 128.25 103.28 127.68 102.41 127.68 z" />
            </g>
            <g fill="#D4CA3A" id="id7412" class="geometry">
              <path d="M104.16,128.25 L 105.04 128.25 105.04 127.89 104.16 127.89 z" />
            </g>
            <g fill="#D4CA3A" id="id7414" class="geometry">
              <path d="M105.92,128.25 L 106.79 128.25 106.79 128.01 105.92 128.01 z" />
            </g>
            <g fill="#D4CA3A" id="id7416" class="geometry">
              <path d="M107.67,128.25 L 108.55 128.25 108.55 128.09 107.67 128.09 z" />
            </g>
            <g fill="#D4CA3A" id="id7418" class="geometry">
              <path d="M109.43,128.25 L 110.3 128.25 110.3 128.17 109.43 128.17 z" />
            </g>
            <g fill="#D4CA3A" id="id7420" class="geometry">
              <path d="M111.18,128.25 L 112.06 128.25 112.06 128.17 111.18 128.17 z" />
            </g>
            <g fill="#D4CA3A" id="id7422" class="geometry">
              <path d="M112.94,128.25 L 113.81 128.25 113.81 128.21 112.94 128.21 z" />
            </g>
            <g fill="#D4CA3A" id="id7424" class="geometry">
              <path d="M114.69,128.25 L 115.57 128.25 115.57 128.22 114.69 128.22 z" />
            </g>
            <g fill="#D4CA3A" id="id7426" class="geometry">
              <path d="M116.44,128.25 L 117.32 128.25 117.32 128.23 116.44 128.23 z" />
            </g>
            <g fill="#D4CA3A" id="id7428" class="geometry">
              <path d="M118.2,128.25 L 119.08 128.25 119.08 128.23 118.2 128.23 z" />
            </g>
            <g fill="#D4CA3A" id="id7430" class="geometry">
              <path d="M119.95,128.25 L 120.83 128.25 120.83 128.24 119.95 128.24 z" />
            </g>
            <g fill="#D4CA3A" id="id7432" class="geometry">
              <path d="M121.71,128.25 L 122.59 128.25 122.59 128.24 121.71 128.24 z" />
            </g>
            <g fill="#D4CA3A" id="id7434" class="geometry">
              <path d="M123.46,128.25 L 124.34 128.25 124.34 128.24 123.46 128.24 z" />
            </g>
            <g fill="#D4CA3A" id="id7436" class="geometry">
              <path d="M125.22,128.25 L 126.1 128.25 126.1 128.25 125.22 128.25 z" />
            </g>
            <g fill="#D4CA3A" id="id7438" class="geometry">
              <path d="M126.97,128.25 L 127.85 128.25 127.85 128.25 126.97 128.25 z" />
            </g>
            <g fill="#D4CA3A" id="id7440" class="geometry">
              <path d="M128.73,128.25 L 129.6 128.25 129.6 128.25 128.73 128.25 z" />
            </g>
            <g fill="#D4CA3A" id="id7442" class="geometry">
              <path d="M130.48,128.25 L 131.36 128.25 131.36 128.25 130.48 128.25 z" />
            </g>
            <g fill="#D4CA3A" id="id7444" class="geometry">
              <path d="M132.24,128.25 L 133.11 128.25 133.11 128.25 132.24 128.25 z" />
            </g>
            <g fill="#D4CA3A" id="id7446" class="geometry">
              <path d="M133.99,128.25 L 134.87 128.25 134.87 128.25 133.99 128.25 z" />
            </g>
            <g fill="#D4CA3A" id="id7448" class="geometry">
              <path d="M135.75,128.25 L 136.62 128.25 136.62 128.25 135.75 128.25 z" />
            </g>
            <g fill="#D4CA3A" id="id7450" class="geometry">
              <path d="M137.5,128.25 L 138.38 128.25 138.38 128.25 137.5 128.25 z" />
            </g>
            <g fill="#D4CA3A" id="id7452" class="geometry">
              <path d="M139.26,128.25 L 140.13 128.25 140.13 128.25 139.26 128.25 z" />
            </g>
            <g fill="#D4CA3A" id="id7454" class="geometry">
              <path d="M141.01,128.25 L 141.89 128.25 141.89 128.25 141.01 128.25 z" />
            </g>
            <g fill="#D4CA3A" id="id7456" class="geometry">
              <path d="M142.76,128.25 L 143.64 128.25 143.64 128.25 142.76 128.25 z" />
            </g>
            <g fill="#D4CA3A" id="id7458" class="geometry">
              <path d="M144.52,128.25 L 145.4 128.25 145.4 128.25 144.52 128.25 z" />
            </g>
            <g fill="#D4CA3A" id="id7460" class="geometry">
              <path d="M146.27,128.25 L 147.15 128.25 147.15 128.25 146.27 128.25 z" />
            </g>
            <g fill="#D4CA3A" id="id7462" class="geometry">
              <path d="M148.03,128.25 L 148.91 128.25 148.91 128.25 148.03 128.25 z" />
            </g>
            <g fill="#D4CA3A" id="id7464" class="geometry">
              <path d="M149.78,128.25 L 150.66 128.25 150.66 128.25 149.78 128.25 z" />
            </g>
            <g fill="#D4CA3A" id="id7466" class="geometry">
              <path d="M151.54,128.25 L 152.42 128.25 152.42 128.25 151.54 128.25 z" />
            </g>
            <g fill="#00BFFF" id="id7468" class="geometry">
              <path d="M32.22,97.75 L 33.1 97.75 33.1 8.69 32.22 8.69 z" />
            </g>
            <g fill="#00BFFF" id="id7470" class="geometry">
              <path d="M33.98,128.25 L 34.85 128.25 34.85 128.25 33.98 128.25 z" />
            </g>
            <g fill="#00BFFF" id="id7472" class="geometry">
              <path d="M35.73,128.25 L 36.61 128.25 36.61 128.25 35.73 128.25 z" />
            </g>
            <g fill="#00BFFF" id="id7474" class="geometry">
              <path d="M37.49,128.25 L 38.36 128.25 38.36 128.25 37.49 128.25 z" />
            </g>
            <g fill="#00BFFF" id="id7476" class="geometry">
              <path d="M39.24,128.25 L 40.12 128.25 40.12 128.25 39.24 128.25 z" />
            </g>
            <g fill="#00BFFF" id="id7478" class="geometry">
              <path d="M40.99,128.25 L 41.87 128.25 41.87 128.25 40.99 128.25 z" />
            </g>
            <g fill="#00BFFF" id="id7480" class="geometry">
              <path d="M42.75,128.25 L 43.63 128.25 43.63 128.25 42.75 128.25 z" />
            </g>
            <g fill="#00BFFF" id="id7482" class="geometry">
              <path d="M44.5,128.25 L 45.38 128.25 45.38 128.25 44.5 128.25 z" />
            </g>
            <g fill="#00BFFF" id="id7484" class="geometry">
              <path d="M46.26,128.25 L 47.14 128.25 47.14 128.25 46.26 128.25 z" />
            </g>
            <g fill="#00BFFF" id="id7486" class="geometry">
              <path d="M48.01,128.25 L 48.89 128.25 48.89 128.25 48.01 128.25 z" />
            </g>
            <g fill="#00BFFF" id="id7488" class="geometry">
              <path d="M49.77,128.25 L 50.65 128.25 50.65 128.25 49.77 128.25 z" />
            </g>
            <g fill="#00BFFF" id="id7490" class="geometry">
              <path d="M51.52,128.25 L 52.4 128.25 52.4 128.25 51.52 128.25 z" />
            </g>
            <g fill="#00BFFF" id="id7492" class="geometry">
              <path d="M53.28,128.25 L 54.15 128.25 54.15 128.25 53.28 128.25 z" />
            </g>
            <g fill="#00BFFF" id="id7494" class="geometry">
              <path d="M55.03,128.25 L 55.91 128.25 55.91 128.25 55.03 128.25 z" />
            </g>
            <g fill="#00BFFF" id="id7496" class="geometry">
              <path d="M56.79,128.25 L 57.66 128.25 57.66 128.25 56.79 128.25 z" />
            </g>
            <g fill="#00BFFF" id="id7498" class="geometry">
              <path d="M58.54,128.25 L 59.42 128.25 59.42 128.25 58.54 128.25 z" />
            </g>
            <g fill="#00BFFF" id="id7500" class="geometry">
              <path d="M60.3,128.25 L 61.17 128.25 61.17 128.25 60.3 128.25 z" />
            </g>
            <g fill="#00BFFF" id="id7502" class="geometry">
              <path d="M62.05,128.25 L 62.93 128.25 62.93 128.25 62.05 128.25 z" />
            </g>
            <g fill="#00BFFF" id="id7504" class="geometry">
              <path d="M63.81,128.25 L 64.68 128.25 64.68 128.25 63.81 128.25 z" />
            </g>
            <g fill="#00BFFF" id="id7506" class="geometry">
              <path d="M65.56,128.25 L 66.44 128.25 66.44 128.25 65.56 128.25 z" />
            </g>
            <g fill="#00BFFF" id="id7508" class="geometry">
              <path d="M67.31,128.25 L 68.19 128.25 68.19 128.25 67.31 128.25 z" />
            </g>
            <g fill="#00BFFF" id="id7510" class="geometry">
              <path d="M69.07,128.25 L 69.95 128.25 69.95 128.25 69.07 128.25 z" />
            </g>
            <g fill="#00BFFF" id="id7512" class="geometry">
              <path d="M70.82,128.25 L 71.7 128.25 71.7 128.25 70.82 128.25 z" />
            </g>
            <g fill="#00BFFF" id="id7514" class="geometry">
              <path d="M72.58,128.25 L 73.46 128.25 73.46 128.25 72.58 128.25 z" />
            </g>
            <g fill="#00BFFF" id="id7516" class="geometry">
              <path d="M74.33,128.25 L 75.21 128.25 75.21 128.25 74.33 128.25 z" />
            </g>
            <g fill="#00BFFF" id="id7518" class="geometry">
              <path d="M76.09,128.25 L 76.97 128.25 76.97 128.25 76.09 128.25 z" />
            </g>
            <g fill="#00BFFF" id="id7520" class="geometry">
              <path d="M77.84,128.25 L 78.72 128.25 78.72 128.25 77.84 128.25 z" />
            </g>
            <g fill="#00BFFF" id="id7522" class="geometry">
              <path d="M79.6,128.25 L 80.47 128.25 80.47 128.25 79.6 128.25 z" />
            </g>
            <g fill="#00BFFF" id="id7524" class="geometry">
              <path d="M81.35,128.25 L 82.23 128.25 82.23 128.25 81.35 128.25 z" />
            </g>
            <g fill="#00BFFF" id="id7526" class="geometry">
              <path d="M83.11,128.25 L 83.98 128.25 83.98 128.25 83.11 128.25 z" />
            </g>
            <g fill="#00BFFF" id="id7528" class="geometry">
              <path d="M84.86,128.25 L 85.74 128.25 85.74 128.25 84.86 128.25 z" />
            </g>
            <g fill="#00BFFF" id="id7530" class="geometry">
              <path d="M86.62,128.25 L 87.49 128.25 87.49 128.25 86.62 128.25 z" />
            </g>
            <g fill="#00BFFF" id="id7532" class="geometry">
              <path d="M88.37,128.25 L 89.25 128.25 89.25 128.25 88.37 128.25 z" />
            </g>
            <g fill="#00BFFF" id="id7534" class="geometry">
              <path d="M90.12,128.19 L 91 128.19 91 128 90.12 128 z" />
            </g>
            <g fill="#00BFFF" id="id7536" class="geometry">
              <path d="M91.88,115.58 L 92.76 115.58 92.76 94.39 91.88 94.39 z" />
            </g>
            <g fill="#00BFFF" id="id7538" class="geometry">
              <path d="M93.63,119.93 L 94.51 119.93 94.51 110.04 93.63 110.04 z" />
            </g>
            <g fill="#00BFFF" id="id7540" class="geometry">
              <path d="M95.39,123.51 L 96.27 123.51 96.27 118.36 95.39 118.36 z" />
            </g>
            <g fill="#00BFFF" id="id7542" class="geometry">
              <path d="M97.14,125.51 L 98.02 125.51 98.02 122.65 97.14 122.65 z" />
            </g>
            <g fill="#00BFFF" id="id7544" class="geometry">
              <path d="M98.9,126.69 L 99.78 126.69 99.78 125.02 98.9 125.02 z" />
            </g>
            <g fill="#00BFFF" id="id7546" class="geometry">
              <path d="M100.65,127.32 L 101.53 127.32 101.53 126.3 100.65 126.3 z" />
            </g>
            <g fill="#00BFFF" id="id7548" class="geometry">
              <path d="M102.41,127.68 L 103.28 127.68 103.28 127.1 102.41 127.1 z" />
            </g>
            <g fill="#00BFFF" id="id7550" class="geometry">
              <path d="M104.16,127.89 L 105.04 127.89 105.04 127.51 104.16 127.51 z" />
            </g>
            <g fill="#00BFFF" id="id7552" class="geometry">
              <path d="M105.92,128.01 L 106.79 128.01 106.79 127.78 105.92 127.78 z" />
            </g>
            <g fill="#00BFFF" id="id7554" class="geometry">
              <path d="M107.67,128.09 L 108.55 128.09 108.55 127.93 107.67 127.93 z" />
            </g>
            <g fill="#00BFFF" id="id7556" class="geometry">
              <path d="M109.43,128.17 L 110.3 128.17 110.3 128.05 109.43 128.05 z" />
            </g>
            <g fill="#00BFFF" id="id7558" class="geometry">
              <path d="M111.18,128.17 L 112.06 128.17 112.06 128.09 111.18 128.09 z" />
            </g>
            <g fill="#00BFFF" id="id7560" class="geometry">
              <path d="M112.94,128.21 L 113.81 128.21 113.81 128.17 112.94 128.17 z" />
            </g>
            <g fill="#00BFFF" id="id7562" class="geometry">
              <path d="M114.69,128.22 L 115.57 128.22 115.57 128.19 114.69 128.19 z" />
            </g>
            <g fill="#00BFFF" id="id7564" class="geometry">
              <path d="M116.44,128.23 L 117.32 128.23 117.32 128.2 116.44 128.2 z" />
            </g>
            <g fill="#00BFFF" id="id7566" class="geometry">
              <path d="M118.2,128.23 L 119.08 128.23 119.08 128.22 118.2 128.22 z" />
            </g>
            <g fill="#00BFFF" id="id7568" class="geometry">
              <path d="M119.95,128.24 L 120.83 128.24 120.83 128.23 119.95 128.23 z" />
            </g>
            <g fill="#00BFFF" id="id7570" class="geometry">
              <path d="M121.71,128.24 L 122.59 128.24 122.59 128.23 121.71 128.23 z" />
            </g>
            <g fill="#00BFFF" id="id7572" class="geometry">
              <path d="M123.46,128.24 L 124.34 128.24 124.34 128.24 123.46 128.24 z" />
            </g>
            <g fill="#00BFFF" id="id7574" class="geometry">
              <path d="M125.22,128.25 L 126.1 128.25 126.1 128.25 125.22 128.25 z" />
            </g>
            <g fill="#00BFFF" id="id7576" class="geometry">
              <path d="M126.97,128.25 L 127.85 128.25 127.85 128.25 126.97 128.25 z" />
            </g>
            <g fill="#00BFFF" id="id7578" class="geometry">
              <path d="M128.73,128.25 L 129.6 128.25 129.6 128.25 128.73 128.25 z" />
            </g>
            <g fill="#00BFFF" id="id7580" class="geometry">
              <path d="M130.48,128.25 L 131.36 128.25 131.36 128.25 130.48 128.25 z" />
            </g>
            <g fill="#00BFFF" id="id7582" class="geometry">
              <path d="M132.24,128.25 L 133.11 128.25 133.11 128.25 132.24 128.25 z" />
            </g>
            <g fill="#00BFFF" id="id7584" class="geometry">
              <path d="M133.99,128.25 L 134.87 128.25 134.87 128.25 133.99 128.25 z" />
            </g>
            <g fill="#00BFFF" id="id7586" class="geometry">
              <path d="M135.75,128.25 L 136.62 128.25 136.62 128.25 135.75 128.25 z" />
            </g>
            <g fill="#00BFFF" id="id7588" class="geometry">
              <path d="M137.5,128.25 L 138.38 128.25 138.38 128.25 137.5 128.25 z" />
            </g>
            <g fill="#00BFFF" id="id7590" class="geometry">
              <path d="M139.26,128.25 L 140.13 128.25 140.13 128.25 139.26 128.25 z" />
            </g>
            <g fill="#00BFFF" id="id7592" class="geometry">
              <path d="M141.01,128.25 L 141.89 128.25 141.89 128.25 141.01 128.25 z" />
            </g>
            <g fill="#00BFFF" id="id7594" class="geometry">
              <path d="M142.76,128.25 L 143.64 128.25 143.64 128.25 142.76 128.25 z" />
            </g>
            <g fill="#00BFFF" id="id7596" class="geometry">
              <path d="M144.52,128.25 L 145.4 128.25 145.4 128.25 144.52 128.25 z" />
            </g>
            <g fill="#00BFFF" id="id7598" class="geometry">
              <path d="M146.27,128.25 L 147.15 128.25 147.15 128.25 146.27 128.25 z" />
            </g>
            <g fill="#00BFFF" id="id7600" class="geometry">
              <path d="M148.03,128.25 L 148.91 128.25 148.91 128.25 148.03 128.25 z" />
            </g>
            <g fill="#00BFFF" id="id7602" class="geometry">
              <path d="M149.78,128.25 L 150.66 128.25 150.66 128.25 149.78 128.25 z" />
            </g>
            <g fill="#00BFFF" id="id7604" class="geometry">
              <path d="M151.54,128.25 L 152.42 128.25 152.42 128.25 151.54 128.25 z" />
            </g>
          </g>
        </g>
      </g>
      <g clip-path="url(#clippath3)">
      </g>
    </g>
  </g>
</g>
<defs>
<clipPath id="clippath1">
  <path d="M27.88,5 L 179.25 5 179.25 131.84 27.88 131.84" />
</clipPath
><clipPath id="clippath2">
  <path d="M27.88,5 L 179.25 5 179.25 131.84 27.88 131.84" />
</clipPath
><clipPath id="clippath3">
  <path d="M27.88,5 L 179.25 5 179.25 131.84 27.88 131.84" />
</clipPath
></defs>
</svg>
